<svg xmlns="http://www.w3.org/2000/svg" viewBox="0 0 320 200">
  <defs>
    <linearGradient id="bg" x1="0" y1="0" x2="1" y2="1">
      <stop offset="0" stop-color="#f472b6"/>
      <stop offset="1" stop-color="#7c3aed"/>
    </linearGradient>
  </defs>
  <rect width="320" height="200" fill="url(#bg)"/>
  <circle cx="262" cy="36" r="44" fill="#fff" opacity=".1"/>
  <circle cx="48" cy="170" r="36" fill="#fff" opacity=".08"/>
  <path d="M102 200 C106 164 132 150 160 150 C188 150 214 164 218 200 Z" fill="#fde047"/>
  <path d="M146 150 L160 164 L174 150" fill="none" stroke="#fff" stroke-width="4" stroke-linejoin="round"/>
  <rect x="150" y="124" width="20" height="26" rx="8" fill="#f1c9a5"/>
  <circle cx="114" cy="92" r="17" fill="#6b3f1f"/>
  <circle cx="206" cy="92" r="17" fill="#6b3f1f"/>
  <circle cx="160" cy="88" r="42" fill="#6b3f1f"/>
  <circle cx="160" cy="94" r="38" fill="#f1c9a5"/>
  <path d="M122 92 C118 56 202 56 198 92 C190 74 176 68 160 70 C144 68 130 74 122 92 Z" fill="#6b3f1f"/>
  <path d="M190 58 L204 50 L204 66 Z M190 58 L176 50 L176 66 Z" fill="#ec4899"/>
  <circle cx="190" cy="58" r="4" fill="#be185d"/>
  <circle cx="146" cy="98" r="4.5" fill="#1e1b4b"/>
  <circle cx="174" cy="98" r="4.5" fill="#1e1b4b"/>
  <circle cx="147.5" cy="96.5" r="1.4" fill="#fff"/>
  <circle cx="175.5" cy="96.5" r="1.4" fill="#fff"/>
  <circle cx="136" cy="110" r="6" fill="#f472b6" opacity=".45"/>
  <circle cx="184" cy="110" r="6" fill="#f472b6" opacity=".45"/>
  <path d="M148 112 Q160 124 172 112" fill="none" stroke="#1e1b4b" stroke-width="3" stroke-linecap="round"/>
</svg>
