<svg xmlns="http://www.w3.org/2000/svg" viewBox="0 0 320 200">
  <defs>
    <linearGradient id="bg" x1="0" y1="0" x2="1" y2="1">
      <stop offset="0" stop-color="#22d3ee"/>
      <stop offset="1" stop-color="#4f46e5"/>
    </linearGradient>
  </defs>
  <rect width="320" height="200" fill="url(#bg)"/>
  <circle cx="58" cy="40" r="40" fill="#fff" opacity=".1"/>
  <circle cx="276" cy="168" r="38" fill="#fff" opacity=".08"/>
  <path d="M102 200 C106 164 132 150 160 150 C188 150 214 164 218 200 Z" fill="#f97316"/>
  <path d="M128 176 L192 176" stroke="#fff" stroke-width="6" opacity=".7"/>
  <rect x="150" y="124" width="20" height="26" rx="8" fill="#8d5a3b"/>
  <circle cx="120" cy="96" r="7" fill="#8d5a3b"/>
  <circle cx="200" cy="96" r="7" fill="#8d5a3b"/>
  <circle cx="160" cy="94" r="39" fill="#8d5a3b"/>
  <path d="M121 88 C118 50 202 50 199 88 C192 74 184 70 176 72 C168 64 150 64 140 72 C132 70 126 76 121 88 Z" fill="#1c1917"/>
  <path d="M120 72 C122 44 198 44 200 72 L210 76 C212 80 208 82 204 80 L120 78 Z" fill="#dc2626"/>
  <rect x="150" y="46" width="20" height="8" rx="4" fill="#fff" opacity=".85"/>
  <circle cx="146" cy="98" r="4.5" fill="#0f172a"/>
  <circle cx="174" cy="98" r="4.5" fill="#0f172a"/>
  <circle cx="147.5" cy="96.5" r="1.4" fill="#fff"/>
  <circle cx="175.5" cy="96.5" r="1.4" fill="#fff"/>
  <path d="M146 110 Q160 124 174 110 Z" fill="#fff" stroke="#0f172a" stroke-width="3" stroke-linejoin="round"/>
</svg>
